<svg xmlns="http://www.w3.org/2000/svg" viewBox="0 0 24 18" role="img" aria-label="English">
  <rect width="24" height="18" fill="#b22234"/>
  <g fill="#fff">
    <rect y="1.385" width="24" height="1.385"/>
    <rect y="4.154" width="24" height="1.385"/>
    <rect y="6.923" width="24" height="1.385"/>
    <rect y="9.692" width="24" height="1.385"/>
    <rect y="12.462" width="24" height="1.385"/>
    <rect y="15.231" width="24" height="1.385"/>
  </g>
  <rect width="9.6" height="9.692" fill="#3c3b6e"/>
  <g fill="#fff">
    <circle cx="1.6" cy="1.6" r="0.5"/><circle cx="4" cy="1.6" r="0.5"/><circle cx="6.4" cy="1.6" r="0.5"/><circle cx="8" cy="1.6" r="0.5"/>
    <circle cx="2.8" cy="3.2" r="0.5"/><circle cx="5.2" cy="3.2" r="0.5"/><circle cx="7.2" cy="3.2" r="0.5"/>
    <circle cx="1.6" cy="4.8" r="0.5"/><circle cx="4" cy="4.8" r="0.5"/><circle cx="6.4" cy="4.8" r="0.5"/><circle cx="8" cy="4.8" r="0.5"/>
    <circle cx="2.8" cy="6.4" r="0.5"/><circle cx="5.2" cy="6.4" r="0.5"/><circle cx="7.2" cy="6.4" r="0.5"/>
    <circle cx="1.6" cy="8" r="0.5"/><circle cx="4" cy="8" r="0.5"/><circle cx="6.4" cy="8" r="0.5"/><circle cx="8" cy="8" r="0.5"/>
  </g>
</svg>
